<svg width="35" height="30" viewBox="0 0 35 30" fill="none" xmlns="http://www.w3.org/2000/svg">
<path d="M26.6807 6.17822L27.6341 7.02722L17.5276 16.0212L16.5743 15.1728L26.6807 6.17822Z" fill="white"/>
<path d="M27.835 12H26.4866V7.2H21.0929V6H27.835V12Z" fill="white"/>
<path d="M24.4639 22.8H10.9797C9.83351 22.8 8.95703 22.02 8.95703 21V9.00001C8.95703 7.98001 9.83351 7.20001 10.9797 7.20001H18.396V8.40001H10.9797C10.5751 8.40001 10.3055 8.64001 10.3055 9.00001V21C10.3055 21.36 10.5751 21.6 10.9797 21.6H24.4639C24.8685 21.6 25.1382 21.36 25.1382 21V14.4H26.4866V21C26.4866 22.02 25.6101 22.8 24.4639 22.8Z" fill="white"/>
</svg>
