<svg width="63" height="24" viewBox="0 0 63 24" fill="none" xmlns="http://www.w3.org/2000/svg">
<rect x="0.656738" y="0.566696" width="62.2707" height="23.0316" fill="#04CF00" fill-opacity="0.26"/>
<path d="M14.4795 7.17326H17.1514V15.4467C17.1514 15.6707 17.1956 15.8295 17.2842 15.9233C17.3779 16.0118 17.5394 16.0561 17.7686 16.0561H23.6123V18.3764H17.0967C16.1592 18.3764 15.4873 18.1785 15.0811 17.7826C14.68 17.3868 14.4795 16.7462 14.4795 15.8608V7.17326ZM25.2373 6.95451H27.7686V9.30608H25.2373V6.95451ZM25.2373 10.2826H27.7686V18.3764H25.2373V10.2826ZM29.1279 10.2826H31.7842L33.5576 15.9936C33.5941 16.1186 33.6436 16.2019 33.7061 16.2436C33.7738 16.28 33.8805 16.2983 34.0264 16.2983H34.2764C34.4222 16.2983 34.5264 16.28 34.5889 16.2436C34.6566 16.2019 34.7087 16.1186 34.7451 15.9936L36.5186 10.2826H39.1748L37.1904 16.517C37.0238 16.991 36.8545 17.353 36.6826 17.603C36.5107 17.853 36.2633 18.0457 35.9404 18.1811C35.6227 18.3113 35.2008 18.3764 34.6748 18.3764H33.6201C33.0941 18.3764 32.6722 18.3113 32.3545 18.1811C32.0368 18.0457 31.792 17.8556 31.6201 17.6108C31.4482 17.3608 31.279 16.9962 31.1123 16.517L29.1279 10.2826ZM44.167 10.1967H45.4795C46.766 10.1967 47.7347 10.4936 48.3857 11.0873C49.042 11.6811 49.3701 12.4936 49.3701 13.5248V15.0014H42.7451C42.7503 15.6003 42.891 16.0222 43.167 16.267C43.4482 16.5118 43.8962 16.6342 44.5107 16.6342H45.2764C45.9014 16.6342 46.3311 16.5743 46.5654 16.4545C46.805 16.3295 46.9248 16.116 46.9248 15.8139V15.6264H49.3701V15.9311C49.3701 16.728 49.055 17.3477 48.4248 17.7905C47.7946 18.2332 46.8519 18.4545 45.5967 18.4545H44.2217C42.904 18.4545 41.9066 18.1472 41.2295 17.5326C40.5576 16.9181 40.2217 16.0639 40.2217 14.9701V13.6889C40.2217 12.5951 40.5524 11.741 41.2139 11.1264C41.8805 10.5066 42.8649 10.1967 44.167 10.1967ZM44.5264 12.0092C43.9274 12.0092 43.4847 12.1368 43.1982 12.392C42.9118 12.642 42.7607 13.0483 42.7451 13.6108H46.9248V13.5795C46.9248 13.0483 46.7868 12.655 46.5107 12.3998C46.2347 12.1394 45.8024 12.0092 45.2139 12.0092H44.5264Z" fill="#36CF00"/>
</svg>
